<?xml version="1.0" encoding="utf-8"?>
<svg version="1.1" id="Layer_1" xmlns="http://www.w3.org/2000/svg" xmlns:xlink="http://www.w3.org/1999/xlink" x="0px"
     y="0px"
     viewBox="0 0 257.5 238.29" enable-background="new 0 0 257.5 238.29" xml:space="preserve">
<path fill="#FFFFFF" d="M198.19,238.29c-4.39-10.78-9.03-20.61-18.52-27.81c-6.99-6.03-9.89-14.98-5.4-22.9
	c13.27-25.05,16.74-53.99,20.51-80.97c-6.82-7.06-1.27-14.25-0.16-21.17c6.54-29.87-7.41-64.4-39.46-70.88
	c-27.1-6.95-82.88-7.7-79.64,32.22c0,1.86,0.17,4-0.65,5.52c-9.35,16.83-4.91,32.87,1.38,49.4c-4.12,0.47-10.02-0.23-8.6,5.59
	c3.05,17.41,7.59,34.67,10.4,52.07c-1.19,21.01,23.69,32.26,3.91,46.95c-9.07,6.01-16.5,13.19-21.6,22.98
	c-3.24,6.22-4.95,6.03-10.47,1.56C16.47,203.88-0.2,168.98,0,126C0.3,60.97,55.14,4.1,120.67,0.33
	C257.29-8.73,307,173.26,198.19,238.29z"/>
</svg>